<svg width="59" height="59" viewBox="0 0 59 59" fill="none" xmlns="http://www.w3.org/2000/svg">
<rect x="2.45833" y="2.45833" width="54.0833" height="54.0833" rx="27.0417" stroke="black" stroke-opacity="0.1" stroke-width="4.91667"/>
<path d="M20.2185 38.7598C19.8907 38.432 19.8907 37.924 20.2185 37.5962L37.5907 20.224C37.9185 19.8962 38.4265 19.8962 38.7543 20.224C39.0821 20.5518 39.0821 21.0598 38.7543 21.3876L21.3657 38.7598C21.0543 39.0876 20.5299 39.0876 20.2185 38.7598Z" stroke="black" stroke-width="2" stroke-miterlimit="10" stroke-linecap="round" stroke-linejoin="round"/>
<path d="M20.2185 20.224C20.5463 19.8962 21.0543 19.8962 21.3821 20.224L38.7707 37.6126C39.0985 37.9404 39.0985 38.4484 38.7707 38.7762C38.4429 39.104 37.9349 39.104 37.6071 38.7762L20.2185 21.3712C19.8907 21.0598 19.8907 20.5354 20.2185 20.224Z" stroke="black" stroke-width="2" stroke-miterlimit="10" stroke-linecap="round" stroke-linejoin="round"/>
</svg>
