<svg width="80" height="80" viewBox="0 0 80 80" fill="none" xmlns="http://www.w3.org/2000/svg">
<rect x="3.375" y="3.375" width="73.25" height="73.25" rx="36.625" stroke="#402A2A" stroke-opacity="0.1" stroke-width="6.75"/>
<g clip-path="url(#clip0_275_102)">
<path fill-rule="evenodd" clip-rule="evenodd" d="M48.8987 38.3035C49.3486 38.7535 49.6013 39.3637 49.6013 40C49.6013 40.6362 49.3486 41.2465 48.8987 41.6964L35.3247 55.2705C35.1033 55.4997 34.8386 55.6825 34.5458 55.8082C34.2531 55.934 33.9382 56.0002 33.6196 56.0029C33.301 56.0057 32.985 55.945 32.6901 55.8243C32.3952 55.7037 32.1273 55.5255 31.902 55.3002C31.6767 55.0749 31.4986 54.807 31.3779 54.5121C31.2573 54.2172 31.1965 53.9013 31.1993 53.5827C31.2021 53.2641 31.2683 52.9492 31.394 52.6564C31.5198 52.3637 31.7026 52.0989 31.9318 51.8776L43.8094 40L31.9318 28.1224C31.4947 27.6698 31.2528 27.0637 31.2583 26.4346C31.2637 25.8054 31.5161 25.2036 31.961 24.7587C32.4059 24.3138 33.0077 24.0615 33.6369 24.056C34.266 24.0505 34.8721 24.2924 35.3247 24.7295L48.8987 38.3035Z" fill="#6B686C"/>
</g>
<defs>
<clipPath id="clip0_275_102">
<rect width="57.5883" height="57.5883" fill="white" transform="translate(11.207 11.2058)"/>
</clipPath>
</defs>
</svg>
