<svg width="80" height="80" viewBox="0 0 80 80" fill="none" xmlns="http://www.w3.org/2000/svg">
<rect x="-3.375" y="3.375" width="73.25" height="73.25" rx="36.625" transform="matrix(-1 0 0 1 73.25 0)" stroke="#402A2A" stroke-opacity="0.1" stroke-width="6.75"/>
<g clip-path="url(#clip0_275_107)">
<path fill-rule="evenodd" clip-rule="evenodd" d="M31.1013 38.3035C30.6514 38.7535 30.3987 39.3637 30.3987 40C30.3987 40.6362 30.6514 41.2465 31.1013 41.6964L44.6753 55.2705C44.8967 55.4997 45.1614 55.6825 45.4542 55.8082C45.7469 55.934 46.0618 56.0002 46.3804 56.0029C46.699 56.0057 47.015 55.945 47.3099 55.8243C47.6048 55.7037 47.8727 55.5255 48.098 55.3002C48.3233 55.0749 48.5014 54.807 48.6221 54.5121C48.7427 54.2172 48.8035 53.9013 48.8007 53.5827C48.7979 53.2641 48.7317 52.9492 48.606 52.6564C48.4802 52.3637 48.2974 52.0989 48.0682 51.8776L36.1906 40L48.0682 28.1224C48.5053 27.6698 48.7472 27.0637 48.7417 26.4346C48.7363 25.8054 48.4839 25.2036 48.039 24.7587C47.5941 24.3138 46.9923 24.0615 46.3631 24.056C45.734 24.0505 45.1279 24.2924 44.6753 24.7295L31.1013 38.3035Z" fill="#6B686C"/>
</g>
<defs>
<clipPath id="clip0_275_107">
<rect width="57.5883" height="57.5883" fill="white" transform="matrix(-1 0 0 1 68.793 11.2058)"/>
</clipPath>
</defs>
</svg>
